<?xml version="1.0" encoding="utf-8" standalone="no"?>
<!DOCTYPE svg PUBLIC "-//W3C//DTD SVG 1.1//EN"
  "http://www.w3.org/Graphics/SVG/1.1/DTD/svg11.dtd">
<svg xmlns:xlink="http://www.w3.org/1999/xlink" width="360pt" height="360pt" viewBox="0 0 360 360" xmlns="http://www.w3.org/2000/svg" version="1.1">
 <metadata>
  <rdf:RDF xmlns:dc="http://purl.org/dc/elements/1.1/" xmlns:cc="http://creativecommons.org/ns#" xmlns:rdf="http://www.w3.org/1999/02/22-rdf-syntax-ns#">
   <cc:Work>
    <dc:type rdf:resource="http://purl.org/dc/dcmitype/StillImage"/>
    <dc:date>2024-03-05T21:15:06.307300</dc:date>
    <dc:format>image/svg+xml</dc:format>
    <dc:creator>
     <cc:Agent>
      <dc:title>Matplotlib v3.8.3, https://matplotlib.org/</dc:title>
     </cc:Agent>
    </dc:creator>
   </cc:Work>
  </rdf:RDF>
 </metadata>
 <defs>
  <style type="text/css">*{stroke-linejoin: round; stroke-linecap: butt}</style>
 </defs>
 <g id="figure_1">
  <g id="patch_1">
   <path d="M 0 360 
L 360 360 
L 360 0 
L 0 0 
z
" style="fill: #ffffff"/>
  </g>
  <g id="axes_1">
   <g id="patch_2">
    <path d="M 50.87 318.04 
L 349.2 318.04 
L 349.2 10.8 
L 50.87 10.8 
z
" style="fill: #ffffff"/>
   </g>
   <g id="patch_3">
    <path d="M 64.430455 318.04 
L 69.188509 318.04 
L 69.188509 316.082746 
L 64.430455 316.082746 
z
" clip-path="url(#p5860310b14)" style="fill: #1f77b4; fill-opacity: 0.5; stroke: #000000; stroke-width: 0.490654; stroke-linejoin: miter"/>
   </g>
   <g id="patch_4">
    <path d="M 69.188509 318.04 
L 73.946563 318.04 
L 73.946563 315.593432 
L 69.188509 315.593432 
z
" clip-path="url(#p5860310b14)" style="fill: #1f77b4; fill-opacity: 0.5; stroke: #000000; stroke-width: 0.490654; stroke-linejoin: miter"/>
   </g>
   <g id="patch_5">
    <path d="M 73.946563 318.04 
L 78.704617 318.04 
L 78.704617 314.614805 
L 73.946563 314.614805 
z
" clip-path="url(#p5860310b14)" style="fill: #1f77b4; fill-opacity: 0.5; stroke: #000000; stroke-width: 0.490654; stroke-linejoin: miter"/>
   </g>
   <g id="patch_6">
    <path d="M 78.704617 318.04 
L 83.462671 318.04 
L 83.462671 308.253728 
L 78.704617 308.253728 
z
" clip-path="url(#p5860310b14)" style="fill: #1f77b4; fill-opacity: 0.5; stroke: #000000; stroke-width: 0.490654; stroke-linejoin: miter"/>
   </g>
   <g id="patch_7">
    <path d="M 83.462671 318.04 
L 88.220726 318.04 
L 88.220726 302.381965 
L 83.462671 302.381965 
z
" clip-path="url(#p5860310b14)" style="fill: #1f77b4; fill-opacity: 0.5; stroke: #000000; stroke-width: 0.490654; stroke-linejoin: miter"/>
   </g>
   <g id="patch_8">
    <path d="M 88.220726 318.04 
L 92.97878 318.04 
L 92.97878 282.809422 
L 88.220726 282.809422 
z
" clip-path="url(#p5860310b14)" style="fill: #1f77b4; fill-opacity: 0.5; stroke: #000000; stroke-width: 0.490654; stroke-linejoin: miter"/>
   </g>
   <g id="patch_9">
    <path d="M 92.97878 318.04 
L 97.736834 318.04 
L 97.736834 262.258251 
L 92.97878 262.258251 
z
" clip-path="url(#p5860310b14)" style="fill: #1f77b4; fill-opacity: 0.5; stroke: #000000; stroke-width: 0.490654; stroke-linejoin: miter"/>
   </g>
   <g id="patch_10">
    <path d="M 97.736834 318.04 
L 102.494888 318.04 
L 102.494888 219.687969 
L 97.736834 219.687969 
z
" clip-path="url(#p5860310b14)" style="fill: #1f77b4; fill-opacity: 0.5; stroke: #000000; stroke-width: 0.490654; stroke-linejoin: miter"/>
   </g>
   <g id="patch_11">
    <path d="M 102.494888 318.04 
L 107.252943 318.04 
L 107.252943 179.564255 
L 102.494888 179.564255 
z
" clip-path="url(#p5860310b14)" style="fill: #1f77b4; fill-opacity: 0.5; stroke: #000000; stroke-width: 0.490654; stroke-linejoin: miter"/>
   </g>
   <g id="patch_12">
    <path d="M 107.252943 318.04 
L 112.010997 318.04 
L 112.010997 105.677904 
L 107.252943 105.677904 
z
" clip-path="url(#p5860310b14)" style="fill: #1f77b4; fill-opacity: 0.5; stroke: #000000; stroke-width: 0.490654; stroke-linejoin: miter"/>
   </g>
   <g id="patch_13">
    <path d="M 112.010997 318.04 
L 116.769051 318.04 
L 116.769051 109.592413 
L 112.010997 109.592413 
z
" clip-path="url(#p5860310b14)" style="fill: #1f77b4; fill-opacity: 0.5; stroke: #000000; stroke-width: 0.490654; stroke-linejoin: miter"/>
   </g>
   <g id="patch_14">
    <path d="M 116.769051 318.04 
L 121.527105 318.04 
L 121.527105 53.810664 
L 116.769051 53.810664 
z
" clip-path="url(#p5860310b14)" style="fill: #1f77b4; fill-opacity: 0.5; stroke: #000000; stroke-width: 0.490654; stroke-linejoin: miter"/>
   </g>
   <g id="patch_15">
    <path d="M 121.527105 318.04 
L 126.285159 318.04 
L 126.285159 74.361835 
L 121.527105 74.361835 
z
" clip-path="url(#p5860310b14)" style="fill: #1f77b4; fill-opacity: 0.5; stroke: #000000; stroke-width: 0.490654; stroke-linejoin: miter"/>
   </g>
   <g id="patch_16">
    <path d="M 126.285159 318.04 
L 131.043214 318.04 
L 131.043214 26.898417 
L 126.285159 26.898417 
z
" clip-path="url(#p5860310b14)" style="fill: #1f77b4; fill-opacity: 0.5; stroke: #000000; stroke-width: 0.490654; stroke-linejoin: miter"/>
   </g>
   <g id="patch_17">
    <path d="M 131.043214 318.04 
L 135.801268 318.04 
L 135.801268 46.960274 
L 131.043214 46.960274 
z
" clip-path="url(#p5860310b14)" style="fill: #1f77b4; fill-opacity: 0.5; stroke: #000000; stroke-width: 0.490654; stroke-linejoin: miter"/>
   </g>
   <g id="patch_18">
    <path d="M 135.801268 318.04 
L 140.559322 318.04 
L 140.559322 25.430476 
L 135.801268 25.430476 
z
" clip-path="url(#p5860310b14)" style="fill: #1f77b4; fill-opacity: 0.5; stroke: #000000; stroke-width: 0.490654; stroke-linejoin: miter"/>
   </g>
   <g id="patch_19">
    <path d="M 140.559322 318.04 
L 145.317376 318.04 
L 145.317376 101.274082 
L 140.559322 101.274082 
z
" clip-path="url(#p5860310b14)" style="fill: #1f77b4; fill-opacity: 0.5; stroke: #000000; stroke-width: 0.490654; stroke-linejoin: miter"/>
   </g>
   <g id="patch_20">
    <path d="M 145.317376 318.04 
L 150.075431 318.04 
L 150.075431 115.464176 
L 145.317376 115.464176 
z
" clip-path="url(#p5860310b14)" style="fill: #1f77b4; fill-opacity: 0.5; stroke: #000000; stroke-width: 0.490654; stroke-linejoin: miter"/>
   </g>
   <g id="patch_21">
    <path d="M 150.075431 318.04 
L 154.833485 318.04 
L 154.833485 124.761134 
L 150.075431 124.761134 
z
" clip-path="url(#p5860310b14)" style="fill: #1f77b4; fill-opacity: 0.5; stroke: #000000; stroke-width: 0.490654; stroke-linejoin: miter"/>
   </g>
   <g id="patch_22">
    <path d="M 154.833485 318.04 
L 159.591539 318.04 
L 159.591539 99.316828 
L 154.833485 99.316828 
z
" clip-path="url(#p5860310b14)" style="fill: #1f77b4; fill-opacity: 0.5; stroke: #000000; stroke-width: 0.490654; stroke-linejoin: miter"/>
   </g>
   <g id="patch_23">
    <path d="M 159.591539 318.04 
L 164.349593 318.04 
L 164.349593 200.60474 
L 159.591539 200.60474 
z
" clip-path="url(#p5860310b14)" style="fill: #1f77b4; fill-opacity: 0.5; stroke: #000000; stroke-width: 0.490654; stroke-linejoin: miter"/>
   </g>
   <g id="patch_24">
    <path d="M 164.349593 318.04 
L 169.107648 318.04 
L 169.107648 189.350527 
L 164.349593 189.350527 
z
" clip-path="url(#p5860310b14)" style="fill: #1f77b4; fill-opacity: 0.5; stroke: #000000; stroke-width: 0.490654; stroke-linejoin: miter"/>
   </g>
   <g id="patch_25">
    <path d="M 169.107648 318.04 
L 173.865702 318.04 
L 173.865702 165.863475 
L 169.107648 165.863475 
z
" clip-path="url(#p5860310b14)" style="fill: #1f77b4; fill-opacity: 0.5; stroke: #000000; stroke-width: 0.490654; stroke-linejoin: miter"/>
   </g>
   <g id="patch_26">
    <path d="M 173.865702 318.04 
L 178.623756 318.04 
L 178.623756 245.132276 
L 173.865702 245.132276 
z
" clip-path="url(#p5860310b14)" style="fill: #1f77b4; fill-opacity: 0.5; stroke: #000000; stroke-width: 0.490654; stroke-linejoin: miter"/>
   </g>
   <g id="patch_27">
    <path d="M 178.623756 318.04 
L 183.38181 318.04 
L 183.38181 240.23914 
L 178.623756 240.23914 
z
" clip-path="url(#p5860310b14)" style="fill: #1f77b4; fill-opacity: 0.5; stroke: #000000; stroke-width: 0.490654; stroke-linejoin: miter"/>
   </g>
   <g id="patch_28">
    <path d="M 183.38181 318.04 
L 188.139864 318.04 
L 188.139864 232.410123 
L 183.38181 232.410123 
z
" clip-path="url(#p5860310b14)" style="fill: #1f77b4; fill-opacity: 0.5; stroke: #000000; stroke-width: 0.490654; stroke-linejoin: miter"/>
   </g>
   <g id="patch_29">
    <path d="M 188.139864 318.04 
L 192.897919 318.04 
L 192.897919 256.875802 
L 188.139864 256.875802 
z
" clip-path="url(#p5860310b14)" style="fill: #1f77b4; fill-opacity: 0.5; stroke: #000000; stroke-width: 0.490654; stroke-linejoin: miter"/>
   </g>
   <g id="patch_30">
    <path d="M 192.897919 318.04 
L 197.655973 318.04 
L 197.655973 256.386488 
L 192.897919 256.386488 
z
" clip-path="url(#p5860310b14)" style="fill: #1f77b4; fill-opacity: 0.5; stroke: #000000; stroke-width: 0.490654; stroke-linejoin: miter"/>
   </g>
   <g id="patch_31">
    <path d="M 197.655973 318.04 
L 202.414027 318.04 
L 202.414027 235.346004 
L 197.655973 235.346004 
z
" clip-path="url(#p5860310b14)" style="fill: #1f77b4; fill-opacity: 0.5; stroke: #000000; stroke-width: 0.490654; stroke-linejoin: miter"/>
   </g>
   <g id="patch_32">
    <path d="M 202.414027 318.04 
L 207.172081 318.04 
L 207.172081 280.362854 
L 202.414027 280.362854 
z
" clip-path="url(#p5860310b14)" style="fill: #1f77b4; fill-opacity: 0.5; stroke: #000000; stroke-width: 0.490654; stroke-linejoin: miter"/>
   </g>
   <g id="patch_33">
    <path d="M 207.172081 318.04 
L 211.930136 318.04 
L 211.930136 282.809422 
L 207.172081 282.809422 
z
" clip-path="url(#p5860310b14)" style="fill: #1f77b4; fill-opacity: 0.5; stroke: #000000; stroke-width: 0.490654; stroke-linejoin: miter"/>
   </g>
   <g id="patch_34">
    <path d="M 211.930136 318.04 
L 216.68819 318.04 
L 216.68819 264.704819 
L 211.930136 264.704819 
z
" clip-path="url(#p5860310b14)" style="fill: #1f77b4; fill-opacity: 0.5; stroke: #000000; stroke-width: 0.490654; stroke-linejoin: miter"/>
   </g>
   <g id="patch_35">
    <path d="M 216.68819 318.04 
L 221.446244 318.04 
L 221.446244 282.320108 
L 216.68819 282.320108 
z
" clip-path="url(#p5860310b14)" style="fill: #1f77b4; fill-opacity: 0.5; stroke: #000000; stroke-width: 0.490654; stroke-linejoin: miter"/>
   </g>
   <g id="patch_36">
    <path d="M 221.446244 318.04 
L 226.204298 318.04 
L 226.204298 267.640701 
L 221.446244 267.640701 
z
" clip-path="url(#p5860310b14)" style="fill: #1f77b4; fill-opacity: 0.5; stroke: #000000; stroke-width: 0.490654; stroke-linejoin: miter"/>
   </g>
   <g id="patch_37">
    <path d="M 226.204298 318.04 
L 230.962352 318.04 
L 230.962352 294.552948 
L 226.204298 294.552948 
z
" clip-path="url(#p5860310b14)" style="fill: #1f77b4; fill-opacity: 0.5; stroke: #000000; stroke-width: 0.490654; stroke-linejoin: miter"/>
   </g>
   <g id="patch_38">
    <path d="M 230.962352 318.04 
L 235.720407 318.04 
L 235.720407 291.617066 
L 230.962352 291.617066 
z
" clip-path="url(#p5860310b14)" style="fill: #1f77b4; fill-opacity: 0.5; stroke: #000000; stroke-width: 0.490654; stroke-linejoin: miter"/>
   </g>
   <g id="patch_39">
    <path d="M 235.720407 318.04 
L 240.478461 318.04 
L 240.478461 290.149126 
L 235.720407 290.149126 
z
" clip-path="url(#p5860310b14)" style="fill: #1f77b4; fill-opacity: 0.5; stroke: #000000; stroke-width: 0.490654; stroke-linejoin: miter"/>
   </g>
   <g id="patch_40">
    <path d="M 240.478461 318.04 
L 245.236515 318.04 
L 245.236515 288.191871 
L 240.478461 288.191871 
z
" clip-path="url(#p5860310b14)" style="fill: #1f77b4; fill-opacity: 0.5; stroke: #000000; stroke-width: 0.490654; stroke-linejoin: miter"/>
   </g>
   <g id="patch_41">
    <path d="M 245.236515 318.04 
L 249.994569 318.04 
L 249.994569 299.446084 
L 245.236515 299.446084 
z
" clip-path="url(#p5860310b14)" style="fill: #1f77b4; fill-opacity: 0.5; stroke: #000000; stroke-width: 0.490654; stroke-linejoin: miter"/>
   </g>
   <g id="patch_42">
    <path d="M 249.994569 318.04 
L 254.752624 318.04 
L 254.752624 270.087269 
L 249.994569 270.087269 
z
" clip-path="url(#p5860310b14)" style="fill: #1f77b4; fill-opacity: 0.5; stroke: #000000; stroke-width: 0.490654; stroke-linejoin: miter"/>
   </g>
   <g id="patch_43">
    <path d="M 254.752624 318.04 
L 259.510678 318.04 
L 259.510678 310.700296 
L 254.752624 310.700296 
z
" clip-path="url(#p5860310b14)" style="fill: #1f77b4; fill-opacity: 0.5; stroke: #000000; stroke-width: 0.490654; stroke-linejoin: miter"/>
   </g>
   <g id="patch_44">
    <path d="M 259.510678 318.04 
L 264.268732 318.04 
L 264.268732 305.317847 
L 259.510678 305.317847 
z
" clip-path="url(#p5860310b14)" style="fill: #1f77b4; fill-opacity: 0.5; stroke: #000000; stroke-width: 0.490654; stroke-linejoin: miter"/>
   </g>
   <g id="patch_45">
    <path d="M 264.268732 318.04 
L 269.026786 318.04 
L 269.026786 298.95677 
L 264.268732 298.95677 
z
" clip-path="url(#p5860310b14)" style="fill: #1f77b4; fill-opacity: 0.5; stroke: #000000; stroke-width: 0.490654; stroke-linejoin: miter"/>
   </g>
   <g id="patch_46">
    <path d="M 269.026786 318.04 
L 273.784841 318.04 
L 273.784841 305.80716 
L 269.026786 305.80716 
z
" clip-path="url(#p5860310b14)" style="fill: #1f77b4; fill-opacity: 0.5; stroke: #000000; stroke-width: 0.490654; stroke-linejoin: miter"/>
   </g>
   <g id="patch_47">
    <path d="M 273.784841 318.04 
L 278.542895 318.04 
L 278.542895 306.296474 
L 273.784841 306.296474 
z
" clip-path="url(#p5860310b14)" style="fill: #1f77b4; fill-opacity: 0.5; stroke: #000000; stroke-width: 0.490654; stroke-linejoin: miter"/>
   </g>
   <g id="patch_48">
    <path d="M 278.542895 318.04 
L 283.300949 318.04 
L 283.300949 275.959032 
L 278.542895 275.959032 
z
" clip-path="url(#p5860310b14)" style="fill: #1f77b4; fill-opacity: 0.5; stroke: #000000; stroke-width: 0.490654; stroke-linejoin: miter"/>
   </g>
   <g id="patch_49">
    <path d="M 283.300949 318.04 
L 288.059003 318.04 
L 288.059003 308.253728 
L 283.300949 308.253728 
z
" clip-path="url(#p5860310b14)" style="fill: #1f77b4; fill-opacity: 0.5; stroke: #000000; stroke-width: 0.490654; stroke-linejoin: miter"/>
   </g>
   <g id="patch_50">
    <path d="M 288.059003 318.04 
L 292.817057 318.04 
L 292.817057 307.275101 
L 288.059003 307.275101 
z
" clip-path="url(#p5860310b14)" style="fill: #1f77b4; fill-opacity: 0.5; stroke: #000000; stroke-width: 0.490654; stroke-linejoin: miter"/>
   </g>
   <g id="patch_51">
    <path d="M 292.817057 318.04 
L 297.575112 318.04 
L 297.575112 303.360592 
L 292.817057 303.360592 
z
" clip-path="url(#p5860310b14)" style="fill: #1f77b4; fill-opacity: 0.5; stroke: #000000; stroke-width: 0.490654; stroke-linejoin: miter"/>
   </g>
   <g id="patch_52">
    <path d="M 297.575112 318.04 
L 302.333166 318.04 
L 302.333166 306.296474 
L 297.575112 306.296474 
z
" clip-path="url(#p5860310b14)" style="fill: #1f77b4; fill-opacity: 0.5; stroke: #000000; stroke-width: 0.490654; stroke-linejoin: miter"/>
   </g>
   <g id="patch_53">
    <path d="M 302.333166 318.04 
L 307.09122 318.04 
L 307.09122 313.636178 
L 302.333166 313.636178 
z
" clip-path="url(#p5860310b14)" style="fill: #1f77b4; fill-opacity: 0.5; stroke: #000000; stroke-width: 0.490654; stroke-linejoin: miter"/>
   </g>
   <g id="patch_54">
    <path d="M 307.09122 318.04 
L 311.849274 318.04 
L 311.849274 303.360592 
L 307.09122 303.360592 
z
" clip-path="url(#p5860310b14)" style="fill: #1f77b4; fill-opacity: 0.5; stroke: #000000; stroke-width: 0.490654; stroke-linejoin: miter"/>
   </g>
   <g id="patch_55">
    <path d="M 311.849274 318.04 
L 316.607329 318.04 
L 316.607329 313.146864 
L 311.849274 313.146864 
z
" clip-path="url(#p5860310b14)" style="fill: #1f77b4; fill-opacity: 0.5; stroke: #000000; stroke-width: 0.490654; stroke-linejoin: miter"/>
   </g>
   <g id="patch_56">
    <path d="M 316.607329 318.04 
L 321.365383 318.04 
L 321.365383 309.721669 
L 316.607329 309.721669 
z
" clip-path="url(#p5860310b14)" style="fill: #1f77b4; fill-opacity: 0.5; stroke: #000000; stroke-width: 0.490654; stroke-linejoin: miter"/>
   </g>
   <g id="patch_57">
    <path d="M 321.365383 318.04 
L 326.123437 318.04 
L 326.123437 308.743042 
L 321.365383 308.743042 
z
" clip-path="url(#p5860310b14)" style="fill: #1f77b4; fill-opacity: 0.5; stroke: #000000; stroke-width: 0.490654; stroke-linejoin: miter"/>
   </g>
   <g id="patch_58">
    <path d="M 326.123437 318.04 
L 330.881491 318.04 
L 330.881491 309.721669 
L 326.123437 309.721669 
z
" clip-path="url(#p5860310b14)" style="fill: #1f77b4; fill-opacity: 0.5; stroke: #000000; stroke-width: 0.490654; stroke-linejoin: miter"/>
   </g>
   <g id="patch_59">
    <path d="M 330.881491 318.04 
L 335.639545 318.04 
L 335.639545 276.448345 
L 330.881491 276.448345 
z
" clip-path="url(#p5860310b14)" style="fill: #1f77b4; fill-opacity: 0.5; stroke: #000000; stroke-width: 0.490654; stroke-linejoin: miter"/>
   </g>
   <g id="matplotlib.axis_1">
    <g id="xtick_1">
     <g id="line2d_1">
      <defs>
       <path id="m4821fac1b6" d="M 0 0 
L 0 3.5 
" style="stroke: #000000; stroke-width: 0.8"/>
      </defs>
      <g>
       <use xlink:href="#m4821fac1b6" x="64.131497" y="318.04" style="stroke: #000000; stroke-width: 0.8"/>
      </g>
     </g>
     <g id="text_1">
      <!-- 0.0 -->
      <g transform="translate(56.179934 332.638438) scale(0.1 -0.1)">
       <defs>
        <path id="DejaVuSans-30" d="M 2034 4250 
Q 1547 4250 1301 3770 
Q 1056 3291 1056 2328 
Q 1056 1369 1301 889 
Q 1547 409 2034 409 
Q 2525 409 2770 889 
Q 3016 1369 3016 2328 
Q 3016 3291 2770 3770 
Q 2525 4250 2034 4250 
z
M 2034 4750 
Q 2819 4750 3233 4129 
Q 3647 3509 3647 2328 
Q 3647 1150 3233 529 
Q 2819 -91 2034 -91 
Q 1250 -91 836 529 
Q 422 1150 422 2328 
Q 422 3509 836 4129 
Q 1250 4750 2034 4750 
z
" transform="scale(0.015625)"/>
        <path id="DejaVuSans-2e" d="M 684 794 
L 1344 794 
L 1344 0 
L 684 0 
L 684 794 
z
" transform="scale(0.015625)"/>
       </defs>
       <use xlink:href="#DejaVuSans-30"/>
       <use xlink:href="#DejaVuSans-2e" x="63.623047"/>
       <use xlink:href="#DejaVuSans-30" x="95.410156"/>
      </g>
     </g>
    </g>
    <g id="xtick_2">
     <g id="line2d_2">
      <g>
       <use xlink:href="#m4821fac1b6" x="118.487462" y="318.04" style="stroke: #000000; stroke-width: 0.8"/>
      </g>
     </g>
     <g id="text_2">
      <!-- 0.2 -->
      <g transform="translate(110.5359 332.638438) scale(0.1 -0.1)">
       <defs>
        <path id="DejaVuSans-32" d="M 1228 531 
L 3431 531 
L 3431 0 
L 469 0 
L 469 531 
Q 828 903 1448 1529 
Q 2069 2156 2228 2338 
Q 2531 2678 2651 2914 
Q 2772 3150 2772 3378 
Q 2772 3750 2511 3984 
Q 2250 4219 1831 4219 
Q 1534 4219 1204 4116 
Q 875 4013 500 3803 
L 500 4441 
Q 881 4594 1212 4672 
Q 1544 4750 1819 4750 
Q 2544 4750 2975 4387 
Q 3406 4025 3406 3419 
Q 3406 3131 3298 2873 
Q 3191 2616 2906 2266 
Q 2828 2175 2409 1742 
Q 1991 1309 1228 531 
z
" transform="scale(0.015625)"/>
       </defs>
       <use xlink:href="#DejaVuSans-30"/>
       <use xlink:href="#DejaVuSans-2e" x="63.623047"/>
       <use xlink:href="#DejaVuSans-32" x="95.410156"/>
      </g>
     </g>
    </g>
    <g id="xtick_3">
     <g id="line2d_3">
      <g>
       <use xlink:href="#m4821fac1b6" x="172.843428" y="318.04" style="stroke: #000000; stroke-width: 0.8"/>
      </g>
     </g>
     <g id="text_3">
      <!-- 0.4 -->
      <g transform="translate(164.891866 332.638438) scale(0.1 -0.1)">
       <defs>
        <path id="DejaVuSans-34" d="M 2419 4116 
L 825 1625 
L 2419 1625 
L 2419 4116 
z
M 2253 4666 
L 3047 4666 
L 3047 1625 
L 3713 1625 
L 3713 1100 
L 3047 1100 
L 3047 0 
L 2419 0 
L 2419 1100 
L 313 1100 
L 313 1709 
L 2253 4666 
z
" transform="scale(0.015625)"/>
       </defs>
       <use xlink:href="#DejaVuSans-30"/>
       <use xlink:href="#DejaVuSans-2e" x="63.623047"/>
       <use xlink:href="#DejaVuSans-34" x="95.410156"/>
      </g>
     </g>
    </g>
    <g id="xtick_4">
     <g id="line2d_4">
      <g>
       <use xlink:href="#m4821fac1b6" x="227.199394" y="318.04" style="stroke: #000000; stroke-width: 0.8"/>
      </g>
     </g>
     <g id="text_4">
      <!-- 0.6 -->
      <g transform="translate(219.247831 332.638438) scale(0.1 -0.1)">
       <defs>
        <path id="DejaVuSans-36" d="M 2113 2584 
Q 1688 2584 1439 2293 
Q 1191 2003 1191 1497 
Q 1191 994 1439 701 
Q 1688 409 2113 409 
Q 2538 409 2786 701 
Q 3034 994 3034 1497 
Q 3034 2003 2786 2293 
Q 2538 2584 2113 2584 
z
M 3366 4563 
L 3366 3988 
Q 3128 4100 2886 4159 
Q 2644 4219 2406 4219 
Q 1781 4219 1451 3797 
Q 1122 3375 1075 2522 
Q 1259 2794 1537 2939 
Q 1816 3084 2150 3084 
Q 2853 3084 3261 2657 
Q 3669 2231 3669 1497 
Q 3669 778 3244 343 
Q 2819 -91 2113 -91 
Q 1303 -91 875 529 
Q 447 1150 447 2328 
Q 447 3434 972 4092 
Q 1497 4750 2381 4750 
Q 2619 4750 2861 4703 
Q 3103 4656 3366 4563 
z
" transform="scale(0.015625)"/>
       </defs>
       <use xlink:href="#DejaVuSans-30"/>
       <use xlink:href="#DejaVuSans-2e" x="63.623047"/>
       <use xlink:href="#DejaVuSans-36" x="95.410156"/>
      </g>
     </g>
    </g>
    <g id="xtick_5">
     <g id="line2d_5">
      <g>
       <use xlink:href="#m4821fac1b6" x="281.55536" y="318.04" style="stroke: #000000; stroke-width: 0.8"/>
      </g>
     </g>
     <g id="text_5">
      <!-- 0.8 -->
      <g transform="translate(273.603797 332.638438) scale(0.1 -0.1)">
       <defs>
        <path id="DejaVuSans-38" d="M 2034 2216 
Q 1584 2216 1326 1975 
Q 1069 1734 1069 1313 
Q 1069 891 1326 650 
Q 1584 409 2034 409 
Q 2484 409 2743 651 
Q 3003 894 3003 1313 
Q 3003 1734 2745 1975 
Q 2488 2216 2034 2216 
z
M 1403 2484 
Q 997 2584 770 2862 
Q 544 3141 544 3541 
Q 544 4100 942 4425 
Q 1341 4750 2034 4750 
Q 2731 4750 3128 4425 
Q 3525 4100 3525 3541 
Q 3525 3141 3298 2862 
Q 3072 2584 2669 2484 
Q 3125 2378 3379 2068 
Q 3634 1759 3634 1313 
Q 3634 634 3220 271 
Q 2806 -91 2034 -91 
Q 1263 -91 848 271 
Q 434 634 434 1313 
Q 434 1759 690 2068 
Q 947 2378 1403 2484 
z
M 1172 3481 
Q 1172 3119 1398 2916 
Q 1625 2713 2034 2713 
Q 2441 2713 2670 2916 
Q 2900 3119 2900 3481 
Q 2900 3844 2670 4047 
Q 2441 4250 2034 4250 
Q 1625 4250 1398 4047 
Q 1172 3844 1172 3481 
z
" transform="scale(0.015625)"/>
       </defs>
       <use xlink:href="#DejaVuSans-30"/>
       <use xlink:href="#DejaVuSans-2e" x="63.623047"/>
       <use xlink:href="#DejaVuSans-38" x="95.410156"/>
      </g>
     </g>
    </g>
    <g id="xtick_6">
     <g id="line2d_6">
      <g>
       <use xlink:href="#m4821fac1b6" x="335.911325" y="318.04" style="stroke: #000000; stroke-width: 0.8"/>
      </g>
     </g>
     <g id="text_6">
      <!-- 1.0 -->
      <g transform="translate(327.959763 332.638438) scale(0.1 -0.1)">
       <defs>
        <path id="DejaVuSans-31" d="M 794 531 
L 1825 531 
L 1825 4091 
L 703 3866 
L 703 4441 
L 1819 4666 
L 2450 4666 
L 2450 531 
L 3481 531 
L 3481 0 
L 794 0 
L 794 531 
z
" transform="scale(0.015625)"/>
       </defs>
       <use xlink:href="#DejaVuSans-31"/>
       <use xlink:href="#DejaVuSans-2e" x="63.623047"/>
       <use xlink:href="#DejaVuSans-30" x="95.410156"/>
      </g>
     </g>
    </g>
    <g id="text_7">
     <!-- price -->
     <g transform="translate(187.590469 346.316563) scale(0.1 -0.1)">
      <defs>
       <path id="DejaVuSans-70" d="M 1159 525 
L 1159 -1331 
L 581 -1331 
L 581 3500 
L 1159 3500 
L 1159 2969 
Q 1341 3281 1617 3432 
Q 1894 3584 2278 3584 
Q 2916 3584 3314 3078 
Q 3713 2572 3713 1747 
Q 3713 922 3314 415 
Q 2916 -91 2278 -91 
Q 1894 -91 1617 61 
Q 1341 213 1159 525 
z
M 3116 1747 
Q 3116 2381 2855 2742 
Q 2594 3103 2138 3103 
Q 1681 3103 1420 2742 
Q 1159 2381 1159 1747 
Q 1159 1113 1420 752 
Q 1681 391 2138 391 
Q 2594 391 2855 752 
Q 3116 1113 3116 1747 
z
" transform="scale(0.015625)"/>
       <path id="DejaVuSans-72" d="M 2631 2963 
Q 2534 3019 2420 3045 
Q 2306 3072 2169 3072 
Q 1681 3072 1420 2755 
Q 1159 2438 1159 1844 
L 1159 0 
L 581 0 
L 581 3500 
L 1159 3500 
L 1159 2956 
Q 1341 3275 1631 3429 
Q 1922 3584 2338 3584 
Q 2397 3584 2469 3576 
Q 2541 3569 2628 3553 
L 2631 2963 
z
" transform="scale(0.015625)"/>
       <path id="DejaVuSans-69" d="M 603 3500 
L 1178 3500 
L 1178 0 
L 603 0 
L 603 3500 
z
M 603 4863 
L 1178 4863 
L 1178 4134 
L 603 4134 
L 603 4863 
z
" transform="scale(0.015625)"/>
       <path id="DejaVuSans-63" d="M 3122 3366 
L 3122 2828 
Q 2878 2963 2633 3030 
Q 2388 3097 2138 3097 
Q 1578 3097 1268 2742 
Q 959 2388 959 1747 
Q 959 1106 1268 751 
Q 1578 397 2138 397 
Q 2388 397 2633 464 
Q 2878 531 3122 666 
L 3122 134 
Q 2881 22 2623 -34 
Q 2366 -91 2075 -91 
Q 1284 -91 818 406 
Q 353 903 353 1747 
Q 353 2603 823 3093 
Q 1294 3584 2113 3584 
Q 2378 3584 2631 3529 
Q 2884 3475 3122 3366 
z
" transform="scale(0.015625)"/>
       <path id="DejaVuSans-65" d="M 3597 1894 
L 3597 1613 
L 953 1613 
Q 991 1019 1311 708 
Q 1631 397 2203 397 
Q 2534 397 2845 478 
Q 3156 559 3463 722 
L 3463 178 
Q 3153 47 2828 -22 
Q 2503 -91 2169 -91 
Q 1331 -91 842 396 
Q 353 884 353 1716 
Q 353 2575 817 3079 
Q 1281 3584 2069 3584 
Q 2775 3584 3186 3129 
Q 3597 2675 3597 1894 
z
M 3022 2063 
Q 3016 2534 2758 2815 
Q 2500 3097 2075 3097 
Q 1594 3097 1305 2825 
Q 1016 2553 972 2059 
L 3022 2063 
z
" transform="scale(0.015625)"/>
      </defs>
      <use xlink:href="#DejaVuSans-70"/>
      <use xlink:href="#DejaVuSans-72" x="63.476562"/>
      <use xlink:href="#DejaVuSans-69" x="104.589844"/>
      <use xlink:href="#DejaVuSans-63" x="132.373047"/>
      <use xlink:href="#DejaVuSans-65" x="187.353516"/>
     </g>
    </g>
    <g id="text_8">
     <!-- 1e6 -->
     <g transform="translate(330.321875 345.316563) scale(0.1 -0.1)">
      <use xlink:href="#DejaVuSans-31"/>
      <use xlink:href="#DejaVuSans-65" x="63.623047"/>
      <use xlink:href="#DejaVuSans-36" x="125.146484"/>
     </g>
    </g>
   </g>
   <g id="matplotlib.axis_2">
    <g id="ytick_1">
     <g id="line2d_7">
      <defs>
       <path id="m364ebfe575" d="M 0 0 
L -3.5 0 
" style="stroke: #000000; stroke-width: 0.8"/>
      </defs>
      <g>
       <use xlink:href="#m364ebfe575" x="50.87" y="318.04" style="stroke: #000000; stroke-width: 0.8"/>
      </g>
     </g>
     <g id="text_9">
      <!-- 0 -->
      <g transform="translate(37.5075 321.839219) scale(0.1 -0.1)">
       <use xlink:href="#DejaVuSans-30"/>
      </g>
     </g>
    </g>
    <g id="ytick_2">
     <g id="line2d_8">
      <g>
       <use xlink:href="#m364ebfe575" x="50.87" y="269.108642" style="stroke: #000000; stroke-width: 0.8"/>
      </g>
     </g>
     <g id="text_10">
      <!-- 100 -->
      <g transform="translate(24.7825 272.90786) scale(0.1 -0.1)">
       <use xlink:href="#DejaVuSans-31"/>
       <use xlink:href="#DejaVuSans-30" x="63.623047"/>
       <use xlink:href="#DejaVuSans-30" x="127.246094"/>
      </g>
     </g>
    </g>
    <g id="ytick_3">
     <g id="line2d_9">
      <g>
       <use xlink:href="#m364ebfe575" x="50.87" y="220.177283" style="stroke: #000000; stroke-width: 0.8"/>
      </g>
     </g>
     <g id="text_11">
      <!-- 200 -->
      <g transform="translate(24.7825 223.976502) scale(0.1 -0.1)">
       <use xlink:href="#DejaVuSans-32"/>
       <use xlink:href="#DejaVuSans-30" x="63.623047"/>
       <use xlink:href="#DejaVuSans-30" x="127.246094"/>
      </g>
     </g>
    </g>
    <g id="ytick_4">
     <g id="line2d_10">
      <g>
       <use xlink:href="#m364ebfe575" x="50.87" y="171.245925" style="stroke: #000000; stroke-width: 0.8"/>
      </g>
     </g>
     <g id="text_12">
      <!-- 300 -->
      <g transform="translate(24.7825 175.045143) scale(0.1 -0.1)">
       <defs>
        <path id="DejaVuSans-33" d="M 2597 2516 
Q 3050 2419 3304 2112 
Q 3559 1806 3559 1356 
Q 3559 666 3084 287 
Q 2609 -91 1734 -91 
Q 1441 -91 1130 -33 
Q 819 25 488 141 
L 488 750 
Q 750 597 1062 519 
Q 1375 441 1716 441 
Q 2309 441 2620 675 
Q 2931 909 2931 1356 
Q 2931 1769 2642 2001 
Q 2353 2234 1838 2234 
L 1294 2234 
L 1294 2753 
L 1863 2753 
Q 2328 2753 2575 2939 
Q 2822 3125 2822 3475 
Q 2822 3834 2567 4026 
Q 2313 4219 1838 4219 
Q 1578 4219 1281 4162 
Q 984 4106 628 3988 
L 628 4550 
Q 988 4650 1302 4700 
Q 1616 4750 1894 4750 
Q 2613 4750 3031 4423 
Q 3450 4097 3450 3541 
Q 3450 3153 3228 2886 
Q 3006 2619 2597 2516 
z
" transform="scale(0.015625)"/>
       </defs>
       <use xlink:href="#DejaVuSans-33"/>
       <use xlink:href="#DejaVuSans-30" x="63.623047"/>
       <use xlink:href="#DejaVuSans-30" x="127.246094"/>
      </g>
     </g>
    </g>
    <g id="ytick_5">
     <g id="line2d_11">
      <g>
       <use xlink:href="#m364ebfe575" x="50.87" y="122.314566" style="stroke: #000000; stroke-width: 0.8"/>
      </g>
     </g>
     <g id="text_13">
      <!-- 400 -->
      <g transform="translate(24.7825 126.113785) scale(0.1 -0.1)">
       <use xlink:href="#DejaVuSans-34"/>
       <use xlink:href="#DejaVuSans-30" x="63.623047"/>
       <use xlink:href="#DejaVuSans-30" x="127.246094"/>
      </g>
     </g>
    </g>
    <g id="ytick_6">
     <g id="line2d_12">
      <g>
       <use xlink:href="#m364ebfe575" x="50.87" y="73.383208" style="stroke: #000000; stroke-width: 0.8"/>
      </g>
     </g>
     <g id="text_14">
      <!-- 500 -->
      <g transform="translate(24.7825 77.182426) scale(0.1 -0.1)">
       <defs>
        <path id="DejaVuSans-35" d="M 691 4666 
L 3169 4666 
L 3169 4134 
L 1269 4134 
L 1269 2991 
Q 1406 3038 1543 3061 
Q 1681 3084 1819 3084 
Q 2600 3084 3056 2656 
Q 3513 2228 3513 1497 
Q 3513 744 3044 326 
Q 2575 -91 1722 -91 
Q 1428 -91 1123 -41 
Q 819 9 494 109 
L 494 744 
Q 775 591 1075 516 
Q 1375 441 1709 441 
Q 2250 441 2565 725 
Q 2881 1009 2881 1497 
Q 2881 1984 2565 2268 
Q 2250 2553 1709 2553 
Q 1456 2553 1204 2497 
Q 953 2441 691 2322 
L 691 4666 
z
" transform="scale(0.015625)"/>
       </defs>
       <use xlink:href="#DejaVuSans-35"/>
       <use xlink:href="#DejaVuSans-30" x="63.623047"/>
       <use xlink:href="#DejaVuSans-30" x="127.246094"/>
      </g>
     </g>
    </g>
    <g id="ytick_7">
     <g id="line2d_13">
      <g>
       <use xlink:href="#m364ebfe575" x="50.87" y="24.451849" style="stroke: #000000; stroke-width: 0.8"/>
      </g>
     </g>
     <g id="text_15">
      <!-- 600 -->
      <g transform="translate(24.7825 28.251068) scale(0.1 -0.1)">
       <use xlink:href="#DejaVuSans-36"/>
       <use xlink:href="#DejaVuSans-30" x="63.623047"/>
       <use xlink:href="#DejaVuSans-30" x="127.246094"/>
      </g>
     </g>
    </g>
    <g id="text_16">
     <!-- Count -->
     <g transform="translate(18.702813 179.268438) rotate(-90) scale(0.1 -0.1)">
      <defs>
       <path id="DejaVuSans-43" d="M 4122 4306 
L 4122 3641 
Q 3803 3938 3442 4084 
Q 3081 4231 2675 4231 
Q 1875 4231 1450 3742 
Q 1025 3253 1025 2328 
Q 1025 1406 1450 917 
Q 1875 428 2675 428 
Q 3081 428 3442 575 
Q 3803 722 4122 1019 
L 4122 359 
Q 3791 134 3420 21 
Q 3050 -91 2638 -91 
Q 1578 -91 968 557 
Q 359 1206 359 2328 
Q 359 3453 968 4101 
Q 1578 4750 2638 4750 
Q 3056 4750 3426 4639 
Q 3797 4528 4122 4306 
z
" transform="scale(0.015625)"/>
       <path id="DejaVuSans-6f" d="M 1959 3097 
Q 1497 3097 1228 2736 
Q 959 2375 959 1747 
Q 959 1119 1226 758 
Q 1494 397 1959 397 
Q 2419 397 2687 759 
Q 2956 1122 2956 1747 
Q 2956 2369 2687 2733 
Q 2419 3097 1959 3097 
z
M 1959 3584 
Q 2709 3584 3137 3096 
Q 3566 2609 3566 1747 
Q 3566 888 3137 398 
Q 2709 -91 1959 -91 
Q 1206 -91 779 398 
Q 353 888 353 1747 
Q 353 2609 779 3096 
Q 1206 3584 1959 3584 
z
" transform="scale(0.015625)"/>
       <path id="DejaVuSans-75" d="M 544 1381 
L 544 3500 
L 1119 3500 
L 1119 1403 
Q 1119 906 1312 657 
Q 1506 409 1894 409 
Q 2359 409 2629 706 
Q 2900 1003 2900 1516 
L 2900 3500 
L 3475 3500 
L 3475 0 
L 2900 0 
L 2900 538 
Q 2691 219 2414 64 
Q 2138 -91 1772 -91 
Q 1169 -91 856 284 
Q 544 659 544 1381 
z
M 1991 3584 
L 1991 3584 
z
" transform="scale(0.015625)"/>
       <path id="DejaVuSans-6e" d="M 3513 2113 
L 3513 0 
L 2938 0 
L 2938 2094 
Q 2938 2591 2744 2837 
Q 2550 3084 2163 3084 
Q 1697 3084 1428 2787 
Q 1159 2491 1159 1978 
L 1159 0 
L 581 0 
L 581 3500 
L 1159 3500 
L 1159 2956 
Q 1366 3272 1645 3428 
Q 1925 3584 2291 3584 
Q 2894 3584 3203 3211 
Q 3513 2838 3513 2113 
z
" transform="scale(0.015625)"/>
       <path id="DejaVuSans-74" d="M 1172 4494 
L 1172 3500 
L 2356 3500 
L 2356 3053 
L 1172 3053 
L 1172 1153 
Q 1172 725 1289 603 
Q 1406 481 1766 481 
L 2356 481 
L 2356 0 
L 1766 0 
Q 1100 0 847 248 
Q 594 497 594 1153 
L 594 3053 
L 172 3053 
L 172 3500 
L 594 3500 
L 594 4494 
L 1172 4494 
z
" transform="scale(0.015625)"/>
      </defs>
      <use xlink:href="#DejaVuSans-43"/>
      <use xlink:href="#DejaVuSans-6f" x="69.824219"/>
      <use xlink:href="#DejaVuSans-75" x="131.005859"/>
      <use xlink:href="#DejaVuSans-6e" x="194.384766"/>
      <use xlink:href="#DejaVuSans-74" x="257.763672"/>
     </g>
    </g>
   </g>
   <g id="line2d_14">
    <path d="M 64.430455 316.649132 
L 67.156174 315.926116 
L 69.881894 314.866782 
L 71.244753 314.161521 
L 72.607613 313.306252 
L 73.970473 312.272794 
L 75.333333 311.0309 
L 76.696192 309.548876 
L 78.059052 307.794086 
L 79.421912 305.733201 
L 80.784772 303.332127 
L 82.147631 300.555615 
L 83.510491 297.366662 
L 84.873351 293.725912 
L 86.236211 289.591351 
L 87.59907 284.918629 
L 88.96193 279.662302 
L 90.32479 273.778194 
L 91.68765 267.226897 
L 93.050509 259.978225 
L 94.413369 252.0162 
L 97.139089 233.988255 
L 99.864808 213.464766 
L 103.953387 179.719725 
L 108.041967 145.858046 
L 110.767686 125.165356 
L 113.493406 106.932582 
L 114.856265 98.853094 
L 116.219125 91.471933 
L 117.581985 84.771494 
L 118.944845 78.726939 
L 120.307704 73.315875 
L 121.670564 68.526329 
L 123.033424 64.361447 
L 124.396284 60.840084 
L 125.759143 57.993344 
L 127.122003 55.858127 
L 128.484863 54.469358 
L 129.847723 53.85278 
L 131.210582 54.019835 
L 132.573442 54.965425 
L 133.936302 56.668416 
L 135.299162 59.094002 
L 136.662021 62.196644 
L 138.024881 65.92241 
L 139.387741 70.210075 
L 140.750601 74.991081 
L 143.47632 85.720666 
L 147.564899 103.43154 
L 153.016339 127.024172 
L 158.467778 149.420797 
L 163.919217 171.145197 
L 168.007796 186.644053 
L 172.096375 201.225114 
L 174.822095 210.370589 
L 177.547814 218.867055 
L 180.273534 226.464928 
L 182.999253 232.976078 
L 184.362113 235.810879 
L 187.087832 240.722421 
L 189.813552 244.859409 
L 197.99071 256.268733 
L 204.805009 266.670122 
L 207.530729 270.226711 
L 208.893588 271.742068 
L 210.256448 273.073349 
L 211.619308 274.230601 
L 214.345027 276.10993 
L 217.070747 277.600572 
L 223.885046 281.064042 
L 227.973625 283.509184 
L 232.062204 285.985593 
L 234.787924 287.446661 
L 237.513643 288.705717 
L 241.602222 290.285054 
L 251.142241 293.647292 
L 253.86796 295.053289 
L 257.95654 297.621591 
L 260.682259 299.266051 
L 262.045119 299.941624 
L 263.407979 300.471867 
L 264.770838 300.833861 
L 266.133698 301.017459 
L 267.496558 301.025868 
L 268.859418 300.875244 
L 271.585137 300.218951 
L 275.673716 299.016358 
L 277.036576 298.756304 
L 278.399436 298.638319 
L 279.762296 298.688721 
L 281.125155 298.917886 
L 282.488015 299.319174 
L 285.213735 300.536223 
L 292.028033 304.177063 
L 294.753753 305.271448 
L 297.479472 306.109839 
L 302.930911 307.428763 
L 309.74521 308.939033 
L 312.47093 309.315838 
L 315.196649 309.381495 
L 317.922369 309.052515 
L 320.648088 308.317771 
L 323.373808 307.260095 
L 327.462387 305.546693 
L 328.825247 305.113071 
L 330.188106 304.832 
L 331.550966 304.749426 
L 332.913826 304.900097 
L 334.276686 305.302115 
L 335.639545 305.953307 
L 335.639545 305.953307 
" clip-path="url(#p5860310b14)" style="fill: none; stroke: #1f77b4; stroke-width: 1.5; stroke-linecap: square"/>
   </g>
   <g id="patch_60">
    <path d="M 50.87 318.04 
L 50.87 10.8 
" style="fill: none; stroke: #000000; stroke-width: 0.8; stroke-linejoin: miter; stroke-linecap: square"/>
   </g>
   <g id="patch_61">
    <path d="M 50.87 318.04 
L 349.2 318.04 
" style="fill: none; stroke: #000000; stroke-width: 0.8; stroke-linejoin: miter; stroke-linecap: square"/>
   </g>
  </g>
 </g>
 <defs>
  <clipPath id="p5860310b14">
   <rect x="50.87" y="10.8" width="298.33" height="307.24"/>
  </clipPath>
 </defs>
</svg>
